<svg xmlns="http://www.w3.org/2000/svg" width="209" height="49" viewBox="0 0 209 49" fill="none"><g clip-path="url(#clip0_86_271)"><path d="M94.9371 9.92334C94.8296 10.0309 94.9639 10.649 94.9908 10.7565C95.0715 11.536 95.2327 12.3423 95.4477 13.0949C96.0928 15.487 97.2217 17.7178 98.6193 19.7605C100.931 23.1471 102.302 27.2325 101.146 31.3179C100.743 32.7962 99.99 34.1938 98.9956 35.3764C98.4311 36.0752 97.5979 36.9084 97.4098 36.8547C96.7647 36.6665 96.4691 36.5859 96.0122 36.4246C95.5552 36.2634 95.5284 36.1827 95.7434 35.8333C96.3616 34.7851 96.4422 34.5163 96.8991 33.3606C97.3292 32.2586 97.6517 31.1297 97.7592 29.9471C98.1624 25.0285 94.5339 20.97 93.862 16.2933C93.9695 17.019 93.9426 17.7716 94.0501 18.5242C94.1845 19.3574 94.3726 20.1906 94.6145 20.9969C95.0714 22.502 95.7434 23.9266 96.1734 25.4586C97.0335 28.5226 96.9529 31.5598 95.179 34.1669C94.6683 34.9195 93.7276 35.3764 93.19 35.0001C88.6746 32.0436 87.0082 27.4475 86.7663 24.6791C86.3094 19.1155 88.4596 15.4064 90.9323 12.7724C91.873 11.6973 93.9157 10.4609 94.9371 9.92334Z" fill="#8BC43F"></path><path d="M115.364 22.959C115.364 30.861 108.967 37.2579 101.065 37.2579C100.42 37.2579 99.7749 37.2041 99.1568 37.1235C99.8018 36.7203 100.393 36.1559 100.85 35.5646C101.441 34.812 101.952 33.9788 102.355 33.1187C107.408 32.4737 111.305 28.1733 111.305 22.959C111.305 17.2879 106.709 12.7187 101.065 12.7187C99.8556 12.7187 98.7267 12.9337 97.6516 13.31C97.4903 12.8799 97.3828 12.423 97.2484 11.9661C97.0334 11.1598 96.8722 10.3266 96.7915 9.49336C96.7915 9.46648 96.7915 9.41273 96.7646 9.3321C98.1354 8.90205 99.5599 8.66016 101.065 8.66016C108.967 8.66016 115.364 15.057 115.364 22.959Z" fill="#3B2415"></path><path d="M111.306 22.9591C111.306 28.1734 107.408 32.5006 102.355 33.1188C102.624 32.5275 102.866 31.9093 103.027 31.2643C103.189 30.6192 103.323 30.001 103.377 29.356C106.011 28.4153 107.865 25.8888 107.865 22.9591C107.865 19.1962 104.828 16.1591 101.065 16.1591C100.34 16.1591 99.6408 16.2666 98.9957 16.4816C98.4851 15.4603 98.0281 14.412 97.6519 13.3101C98.727 12.9338 99.8558 12.7188 101.065 12.7188C106.71 12.7187 111.306 17.3148 111.306 22.9591Z" fill="#92683E"></path><path d="M26.238 36.7202L23.7115 30.6996H11.536L9.06327 36.7202H1L13.6593 4.09082H21.5882L34.4895 36.7202H26.238ZM21.5882 24.5447L17.6103 14.4387L13.6593 24.5447H21.5882Z" fill="#25B27A"></path><path d="M55.5886 10.9176H62.4693V33.1991C62.4693 37.7414 61.2061 41.128 58.6796 43.3051C56.1531 45.4822 52.7396 46.5842 48.493 46.5842C45.5096 46.5842 42.6874 46.0197 39.9997 44.864L42.0961 38.709C44.085 39.6766 46.1815 40.1873 48.3586 40.1873C52.9546 40.1873 55.2392 38.0102 55.2392 33.656V31.8552C53.3309 34.3817 50.8313 35.645 47.7404 35.645C44.1657 35.645 41.3704 34.4355 39.3277 32.0165C37.285 29.5975 36.2637 26.5872 36.2637 22.9856C36.2637 19.384 37.3388 16.3469 39.5159 13.8741C41.6929 11.4014 44.4613 10.165 47.8479 10.165C51.1001 10.165 53.6266 11.4283 55.4005 13.9548L55.5886 10.9176ZM49.1918 29.4094C50.912 29.4094 52.3365 28.845 53.4922 27.6892C54.6479 26.5604 55.2124 24.9477 55.2124 22.905C55.2124 20.7817 54.7017 19.1959 53.6803 18.1208C52.659 17.0457 51.2882 16.5081 49.6218 16.5081C47.8748 16.5081 46.4503 17.0726 45.3483 18.2283C44.2463 19.3572 43.6819 20.9429 43.6819 22.9319C43.6819 24.9208 44.1926 26.5066 45.2139 27.6623C46.2621 28.845 47.5791 29.4094 49.1918 29.4094Z" fill="#25B27A"></path><path d="M76.6065 15.8633C78.461 12.6649 81.3369 11.0791 85.1804 11.0791V18.3898C82.7077 18.1479 80.6919 18.4973 79.0792 19.438C77.4934 20.3787 76.6871 22.0183 76.6871 24.3835V36.7741H69.4302V11.536H76.3108L76.6065 15.8633Z" fill="#25B27A"></path><path d="M155.358 36.2096H147.939L145.332 19.6799L137.027 36.3978H136.06L127.754 19.6262L125.093 36.2096H117.702L124.126 1H125.093L136.516 24.1416L147.993 1H149.068L155.358 36.2096Z" fill="#25B27A"></path><path d="M181.053 29.2751V20.8087C181.053 17.664 180.031 15.1644 178.015 13.3367C175.973 11.5091 173.231 10.5952 169.764 10.5952C166.243 10.5952 163.018 11.5091 160.061 13.3636L162.641 18.551C164.711 17.1265 166.888 16.4008 169.2 16.4008C170.812 16.4008 172.076 16.8039 172.962 17.5834C173.849 18.3628 174.306 19.4648 174.306 20.8624V21.5075C172.801 21.1043 171.269 20.8893 169.657 20.8893C166.243 20.8893 163.582 21.615 161.593 23.0395C159.631 24.464 158.637 26.3992 158.637 28.7913C158.637 31.2909 159.416 33.2261 161.002 34.6238C162.588 36.0214 164.657 36.7202 167.264 36.7202C170.517 36.7202 172.962 35.5376 174.602 33.1724L175.166 36.2095H181.483C181.214 34.0325 181.053 31.721 181.053 29.2751ZM174.306 26.9368C174.306 28.3344 173.796 29.4364 172.801 30.2158C171.807 30.9953 170.57 31.3716 169.146 31.3716C167.963 31.3716 167.049 31.1297 166.458 30.619C165.84 30.1083 165.544 29.4633 165.544 28.6569C165.544 26.5336 167.238 25.4854 170.597 25.4854C171.887 25.4854 173.097 25.6467 174.306 25.9423V26.9368Z" fill="#25B27A"></path><path d="M210 36.7202H201.426L196.454 29.0063L191.454 36.7202H183.391L192.529 24.0339L183.767 11.8584H192.395L196.696 18.7928L201.05 11.8584H209.113L200.62 23.6577L210 36.7202Z" fill="#25B27A"></path></g><defs><clipPath id="clip0_86_271"><rect width="209" height="48.6215" fill="white"></rect></clipPath></defs></svg>